G75*
%MOIN*%
%OFA0B0*%
%FSLAX25Y25*%
%IPPOS*%
%LPD*%
%AMOC8*
5,1,8,0,0,1.08239X$1,22.5*
%
%ADD10C,0.01200*%
%ADD11C,0.00000*%
D10*
X0001600Y0001600D02*
X0001600Y0340301D01*
X0399021Y0340301D01*
X0399021Y0001600D01*
X0001600Y0001600D01*
D11*
X0005600Y0011600D02*
X0005602Y0011754D01*
X0005608Y0011909D01*
X0005618Y0012063D01*
X0005632Y0012217D01*
X0005650Y0012370D01*
X0005671Y0012523D01*
X0005697Y0012676D01*
X0005727Y0012827D01*
X0005760Y0012978D01*
X0005798Y0013128D01*
X0005839Y0013277D01*
X0005884Y0013425D01*
X0005933Y0013571D01*
X0005986Y0013717D01*
X0006042Y0013860D01*
X0006102Y0014003D01*
X0006166Y0014143D01*
X0006233Y0014283D01*
X0006304Y0014420D01*
X0006378Y0014555D01*
X0006456Y0014689D01*
X0006537Y0014820D01*
X0006622Y0014949D01*
X0006710Y0015077D01*
X0006801Y0015201D01*
X0006895Y0015324D01*
X0006993Y0015444D01*
X0007093Y0015561D01*
X0007197Y0015676D01*
X0007303Y0015788D01*
X0007412Y0015897D01*
X0007524Y0016003D01*
X0007639Y0016107D01*
X0007756Y0016207D01*
X0007876Y0016305D01*
X0007999Y0016399D01*
X0008123Y0016490D01*
X0008251Y0016578D01*
X0008380Y0016663D01*
X0008511Y0016744D01*
X0008645Y0016822D01*
X0008780Y0016896D01*
X0008917Y0016967D01*
X0009057Y0017034D01*
X0009197Y0017098D01*
X0009340Y0017158D01*
X0009483Y0017214D01*
X0009629Y0017267D01*
X0009775Y0017316D01*
X0009923Y0017361D01*
X0010072Y0017402D01*
X0010222Y0017440D01*
X0010373Y0017473D01*
X0010524Y0017503D01*
X0010677Y0017529D01*
X0010830Y0017550D01*
X0010983Y0017568D01*
X0011137Y0017582D01*
X0011291Y0017592D01*
X0011446Y0017598D01*
X0011600Y0017600D01*
X0011754Y0017598D01*
X0011909Y0017592D01*
X0012063Y0017582D01*
X0012217Y0017568D01*
X0012370Y0017550D01*
X0012523Y0017529D01*
X0012676Y0017503D01*
X0012827Y0017473D01*
X0012978Y0017440D01*
X0013128Y0017402D01*
X0013277Y0017361D01*
X0013425Y0017316D01*
X0013571Y0017267D01*
X0013717Y0017214D01*
X0013860Y0017158D01*
X0014003Y0017098D01*
X0014143Y0017034D01*
X0014283Y0016967D01*
X0014420Y0016896D01*
X0014555Y0016822D01*
X0014689Y0016744D01*
X0014820Y0016663D01*
X0014949Y0016578D01*
X0015077Y0016490D01*
X0015201Y0016399D01*
X0015324Y0016305D01*
X0015444Y0016207D01*
X0015561Y0016107D01*
X0015676Y0016003D01*
X0015788Y0015897D01*
X0015897Y0015788D01*
X0016003Y0015676D01*
X0016107Y0015561D01*
X0016207Y0015444D01*
X0016305Y0015324D01*
X0016399Y0015201D01*
X0016490Y0015077D01*
X0016578Y0014949D01*
X0016663Y0014820D01*
X0016744Y0014689D01*
X0016822Y0014555D01*
X0016896Y0014420D01*
X0016967Y0014283D01*
X0017034Y0014143D01*
X0017098Y0014003D01*
X0017158Y0013860D01*
X0017214Y0013717D01*
X0017267Y0013571D01*
X0017316Y0013425D01*
X0017361Y0013277D01*
X0017402Y0013128D01*
X0017440Y0012978D01*
X0017473Y0012827D01*
X0017503Y0012676D01*
X0017529Y0012523D01*
X0017550Y0012370D01*
X0017568Y0012217D01*
X0017582Y0012063D01*
X0017592Y0011909D01*
X0017598Y0011754D01*
X0017600Y0011600D01*
X0017598Y0011446D01*
X0017592Y0011291D01*
X0017582Y0011137D01*
X0017568Y0010983D01*
X0017550Y0010830D01*
X0017529Y0010677D01*
X0017503Y0010524D01*
X0017473Y0010373D01*
X0017440Y0010222D01*
X0017402Y0010072D01*
X0017361Y0009923D01*
X0017316Y0009775D01*
X0017267Y0009629D01*
X0017214Y0009483D01*
X0017158Y0009340D01*
X0017098Y0009197D01*
X0017034Y0009057D01*
X0016967Y0008917D01*
X0016896Y0008780D01*
X0016822Y0008645D01*
X0016744Y0008511D01*
X0016663Y0008380D01*
X0016578Y0008251D01*
X0016490Y0008123D01*
X0016399Y0007999D01*
X0016305Y0007876D01*
X0016207Y0007756D01*
X0016107Y0007639D01*
X0016003Y0007524D01*
X0015897Y0007412D01*
X0015788Y0007303D01*
X0015676Y0007197D01*
X0015561Y0007093D01*
X0015444Y0006993D01*
X0015324Y0006895D01*
X0015201Y0006801D01*
X0015077Y0006710D01*
X0014949Y0006622D01*
X0014820Y0006537D01*
X0014689Y0006456D01*
X0014555Y0006378D01*
X0014420Y0006304D01*
X0014283Y0006233D01*
X0014143Y0006166D01*
X0014003Y0006102D01*
X0013860Y0006042D01*
X0013717Y0005986D01*
X0013571Y0005933D01*
X0013425Y0005884D01*
X0013277Y0005839D01*
X0013128Y0005798D01*
X0012978Y0005760D01*
X0012827Y0005727D01*
X0012676Y0005697D01*
X0012523Y0005671D01*
X0012370Y0005650D01*
X0012217Y0005632D01*
X0012063Y0005618D01*
X0011909Y0005608D01*
X0011754Y0005602D01*
X0011600Y0005600D01*
X0011446Y0005602D01*
X0011291Y0005608D01*
X0011137Y0005618D01*
X0010983Y0005632D01*
X0010830Y0005650D01*
X0010677Y0005671D01*
X0010524Y0005697D01*
X0010373Y0005727D01*
X0010222Y0005760D01*
X0010072Y0005798D01*
X0009923Y0005839D01*
X0009775Y0005884D01*
X0009629Y0005933D01*
X0009483Y0005986D01*
X0009340Y0006042D01*
X0009197Y0006102D01*
X0009057Y0006166D01*
X0008917Y0006233D01*
X0008780Y0006304D01*
X0008645Y0006378D01*
X0008511Y0006456D01*
X0008380Y0006537D01*
X0008251Y0006622D01*
X0008123Y0006710D01*
X0007999Y0006801D01*
X0007876Y0006895D01*
X0007756Y0006993D01*
X0007639Y0007093D01*
X0007524Y0007197D01*
X0007412Y0007303D01*
X0007303Y0007412D01*
X0007197Y0007524D01*
X0007093Y0007639D01*
X0006993Y0007756D01*
X0006895Y0007876D01*
X0006801Y0007999D01*
X0006710Y0008123D01*
X0006622Y0008251D01*
X0006537Y0008380D01*
X0006456Y0008511D01*
X0006378Y0008645D01*
X0006304Y0008780D01*
X0006233Y0008917D01*
X0006166Y0009057D01*
X0006102Y0009197D01*
X0006042Y0009340D01*
X0005986Y0009483D01*
X0005933Y0009629D01*
X0005884Y0009775D01*
X0005839Y0009923D01*
X0005798Y0010072D01*
X0005760Y0010222D01*
X0005727Y0010373D01*
X0005697Y0010524D01*
X0005671Y0010677D01*
X0005650Y0010830D01*
X0005632Y0010983D01*
X0005618Y0011137D01*
X0005608Y0011291D01*
X0005602Y0011446D01*
X0005600Y0011600D01*
X0005600Y0330600D02*
X0005602Y0330754D01*
X0005608Y0330909D01*
X0005618Y0331063D01*
X0005632Y0331217D01*
X0005650Y0331370D01*
X0005671Y0331523D01*
X0005697Y0331676D01*
X0005727Y0331827D01*
X0005760Y0331978D01*
X0005798Y0332128D01*
X0005839Y0332277D01*
X0005884Y0332425D01*
X0005933Y0332571D01*
X0005986Y0332717D01*
X0006042Y0332860D01*
X0006102Y0333003D01*
X0006166Y0333143D01*
X0006233Y0333283D01*
X0006304Y0333420D01*
X0006378Y0333555D01*
X0006456Y0333689D01*
X0006537Y0333820D01*
X0006622Y0333949D01*
X0006710Y0334077D01*
X0006801Y0334201D01*
X0006895Y0334324D01*
X0006993Y0334444D01*
X0007093Y0334561D01*
X0007197Y0334676D01*
X0007303Y0334788D01*
X0007412Y0334897D01*
X0007524Y0335003D01*
X0007639Y0335107D01*
X0007756Y0335207D01*
X0007876Y0335305D01*
X0007999Y0335399D01*
X0008123Y0335490D01*
X0008251Y0335578D01*
X0008380Y0335663D01*
X0008511Y0335744D01*
X0008645Y0335822D01*
X0008780Y0335896D01*
X0008917Y0335967D01*
X0009057Y0336034D01*
X0009197Y0336098D01*
X0009340Y0336158D01*
X0009483Y0336214D01*
X0009629Y0336267D01*
X0009775Y0336316D01*
X0009923Y0336361D01*
X0010072Y0336402D01*
X0010222Y0336440D01*
X0010373Y0336473D01*
X0010524Y0336503D01*
X0010677Y0336529D01*
X0010830Y0336550D01*
X0010983Y0336568D01*
X0011137Y0336582D01*
X0011291Y0336592D01*
X0011446Y0336598D01*
X0011600Y0336600D01*
X0011754Y0336598D01*
X0011909Y0336592D01*
X0012063Y0336582D01*
X0012217Y0336568D01*
X0012370Y0336550D01*
X0012523Y0336529D01*
X0012676Y0336503D01*
X0012827Y0336473D01*
X0012978Y0336440D01*
X0013128Y0336402D01*
X0013277Y0336361D01*
X0013425Y0336316D01*
X0013571Y0336267D01*
X0013717Y0336214D01*
X0013860Y0336158D01*
X0014003Y0336098D01*
X0014143Y0336034D01*
X0014283Y0335967D01*
X0014420Y0335896D01*
X0014555Y0335822D01*
X0014689Y0335744D01*
X0014820Y0335663D01*
X0014949Y0335578D01*
X0015077Y0335490D01*
X0015201Y0335399D01*
X0015324Y0335305D01*
X0015444Y0335207D01*
X0015561Y0335107D01*
X0015676Y0335003D01*
X0015788Y0334897D01*
X0015897Y0334788D01*
X0016003Y0334676D01*
X0016107Y0334561D01*
X0016207Y0334444D01*
X0016305Y0334324D01*
X0016399Y0334201D01*
X0016490Y0334077D01*
X0016578Y0333949D01*
X0016663Y0333820D01*
X0016744Y0333689D01*
X0016822Y0333555D01*
X0016896Y0333420D01*
X0016967Y0333283D01*
X0017034Y0333143D01*
X0017098Y0333003D01*
X0017158Y0332860D01*
X0017214Y0332717D01*
X0017267Y0332571D01*
X0017316Y0332425D01*
X0017361Y0332277D01*
X0017402Y0332128D01*
X0017440Y0331978D01*
X0017473Y0331827D01*
X0017503Y0331676D01*
X0017529Y0331523D01*
X0017550Y0331370D01*
X0017568Y0331217D01*
X0017582Y0331063D01*
X0017592Y0330909D01*
X0017598Y0330754D01*
X0017600Y0330600D01*
X0017598Y0330446D01*
X0017592Y0330291D01*
X0017582Y0330137D01*
X0017568Y0329983D01*
X0017550Y0329830D01*
X0017529Y0329677D01*
X0017503Y0329524D01*
X0017473Y0329373D01*
X0017440Y0329222D01*
X0017402Y0329072D01*
X0017361Y0328923D01*
X0017316Y0328775D01*
X0017267Y0328629D01*
X0017214Y0328483D01*
X0017158Y0328340D01*
X0017098Y0328197D01*
X0017034Y0328057D01*
X0016967Y0327917D01*
X0016896Y0327780D01*
X0016822Y0327645D01*
X0016744Y0327511D01*
X0016663Y0327380D01*
X0016578Y0327251D01*
X0016490Y0327123D01*
X0016399Y0326999D01*
X0016305Y0326876D01*
X0016207Y0326756D01*
X0016107Y0326639D01*
X0016003Y0326524D01*
X0015897Y0326412D01*
X0015788Y0326303D01*
X0015676Y0326197D01*
X0015561Y0326093D01*
X0015444Y0325993D01*
X0015324Y0325895D01*
X0015201Y0325801D01*
X0015077Y0325710D01*
X0014949Y0325622D01*
X0014820Y0325537D01*
X0014689Y0325456D01*
X0014555Y0325378D01*
X0014420Y0325304D01*
X0014283Y0325233D01*
X0014143Y0325166D01*
X0014003Y0325102D01*
X0013860Y0325042D01*
X0013717Y0324986D01*
X0013571Y0324933D01*
X0013425Y0324884D01*
X0013277Y0324839D01*
X0013128Y0324798D01*
X0012978Y0324760D01*
X0012827Y0324727D01*
X0012676Y0324697D01*
X0012523Y0324671D01*
X0012370Y0324650D01*
X0012217Y0324632D01*
X0012063Y0324618D01*
X0011909Y0324608D01*
X0011754Y0324602D01*
X0011600Y0324600D01*
X0011446Y0324602D01*
X0011291Y0324608D01*
X0011137Y0324618D01*
X0010983Y0324632D01*
X0010830Y0324650D01*
X0010677Y0324671D01*
X0010524Y0324697D01*
X0010373Y0324727D01*
X0010222Y0324760D01*
X0010072Y0324798D01*
X0009923Y0324839D01*
X0009775Y0324884D01*
X0009629Y0324933D01*
X0009483Y0324986D01*
X0009340Y0325042D01*
X0009197Y0325102D01*
X0009057Y0325166D01*
X0008917Y0325233D01*
X0008780Y0325304D01*
X0008645Y0325378D01*
X0008511Y0325456D01*
X0008380Y0325537D01*
X0008251Y0325622D01*
X0008123Y0325710D01*
X0007999Y0325801D01*
X0007876Y0325895D01*
X0007756Y0325993D01*
X0007639Y0326093D01*
X0007524Y0326197D01*
X0007412Y0326303D01*
X0007303Y0326412D01*
X0007197Y0326524D01*
X0007093Y0326639D01*
X0006993Y0326756D01*
X0006895Y0326876D01*
X0006801Y0326999D01*
X0006710Y0327123D01*
X0006622Y0327251D01*
X0006537Y0327380D01*
X0006456Y0327511D01*
X0006378Y0327645D01*
X0006304Y0327780D01*
X0006233Y0327917D01*
X0006166Y0328057D01*
X0006102Y0328197D01*
X0006042Y0328340D01*
X0005986Y0328483D01*
X0005933Y0328629D01*
X0005884Y0328775D01*
X0005839Y0328923D01*
X0005798Y0329072D01*
X0005760Y0329222D01*
X0005727Y0329373D01*
X0005697Y0329524D01*
X0005671Y0329677D01*
X0005650Y0329830D01*
X0005632Y0329983D01*
X0005618Y0330137D01*
X0005608Y0330291D01*
X0005602Y0330446D01*
X0005600Y0330600D01*
X0383600Y0330600D02*
X0383602Y0330754D01*
X0383608Y0330909D01*
X0383618Y0331063D01*
X0383632Y0331217D01*
X0383650Y0331370D01*
X0383671Y0331523D01*
X0383697Y0331676D01*
X0383727Y0331827D01*
X0383760Y0331978D01*
X0383798Y0332128D01*
X0383839Y0332277D01*
X0383884Y0332425D01*
X0383933Y0332571D01*
X0383986Y0332717D01*
X0384042Y0332860D01*
X0384102Y0333003D01*
X0384166Y0333143D01*
X0384233Y0333283D01*
X0384304Y0333420D01*
X0384378Y0333555D01*
X0384456Y0333689D01*
X0384537Y0333820D01*
X0384622Y0333949D01*
X0384710Y0334077D01*
X0384801Y0334201D01*
X0384895Y0334324D01*
X0384993Y0334444D01*
X0385093Y0334561D01*
X0385197Y0334676D01*
X0385303Y0334788D01*
X0385412Y0334897D01*
X0385524Y0335003D01*
X0385639Y0335107D01*
X0385756Y0335207D01*
X0385876Y0335305D01*
X0385999Y0335399D01*
X0386123Y0335490D01*
X0386251Y0335578D01*
X0386380Y0335663D01*
X0386511Y0335744D01*
X0386645Y0335822D01*
X0386780Y0335896D01*
X0386917Y0335967D01*
X0387057Y0336034D01*
X0387197Y0336098D01*
X0387340Y0336158D01*
X0387483Y0336214D01*
X0387629Y0336267D01*
X0387775Y0336316D01*
X0387923Y0336361D01*
X0388072Y0336402D01*
X0388222Y0336440D01*
X0388373Y0336473D01*
X0388524Y0336503D01*
X0388677Y0336529D01*
X0388830Y0336550D01*
X0388983Y0336568D01*
X0389137Y0336582D01*
X0389291Y0336592D01*
X0389446Y0336598D01*
X0389600Y0336600D01*
X0389754Y0336598D01*
X0389909Y0336592D01*
X0390063Y0336582D01*
X0390217Y0336568D01*
X0390370Y0336550D01*
X0390523Y0336529D01*
X0390676Y0336503D01*
X0390827Y0336473D01*
X0390978Y0336440D01*
X0391128Y0336402D01*
X0391277Y0336361D01*
X0391425Y0336316D01*
X0391571Y0336267D01*
X0391717Y0336214D01*
X0391860Y0336158D01*
X0392003Y0336098D01*
X0392143Y0336034D01*
X0392283Y0335967D01*
X0392420Y0335896D01*
X0392555Y0335822D01*
X0392689Y0335744D01*
X0392820Y0335663D01*
X0392949Y0335578D01*
X0393077Y0335490D01*
X0393201Y0335399D01*
X0393324Y0335305D01*
X0393444Y0335207D01*
X0393561Y0335107D01*
X0393676Y0335003D01*
X0393788Y0334897D01*
X0393897Y0334788D01*
X0394003Y0334676D01*
X0394107Y0334561D01*
X0394207Y0334444D01*
X0394305Y0334324D01*
X0394399Y0334201D01*
X0394490Y0334077D01*
X0394578Y0333949D01*
X0394663Y0333820D01*
X0394744Y0333689D01*
X0394822Y0333555D01*
X0394896Y0333420D01*
X0394967Y0333283D01*
X0395034Y0333143D01*
X0395098Y0333003D01*
X0395158Y0332860D01*
X0395214Y0332717D01*
X0395267Y0332571D01*
X0395316Y0332425D01*
X0395361Y0332277D01*
X0395402Y0332128D01*
X0395440Y0331978D01*
X0395473Y0331827D01*
X0395503Y0331676D01*
X0395529Y0331523D01*
X0395550Y0331370D01*
X0395568Y0331217D01*
X0395582Y0331063D01*
X0395592Y0330909D01*
X0395598Y0330754D01*
X0395600Y0330600D01*
X0395598Y0330446D01*
X0395592Y0330291D01*
X0395582Y0330137D01*
X0395568Y0329983D01*
X0395550Y0329830D01*
X0395529Y0329677D01*
X0395503Y0329524D01*
X0395473Y0329373D01*
X0395440Y0329222D01*
X0395402Y0329072D01*
X0395361Y0328923D01*
X0395316Y0328775D01*
X0395267Y0328629D01*
X0395214Y0328483D01*
X0395158Y0328340D01*
X0395098Y0328197D01*
X0395034Y0328057D01*
X0394967Y0327917D01*
X0394896Y0327780D01*
X0394822Y0327645D01*
X0394744Y0327511D01*
X0394663Y0327380D01*
X0394578Y0327251D01*
X0394490Y0327123D01*
X0394399Y0326999D01*
X0394305Y0326876D01*
X0394207Y0326756D01*
X0394107Y0326639D01*
X0394003Y0326524D01*
X0393897Y0326412D01*
X0393788Y0326303D01*
X0393676Y0326197D01*
X0393561Y0326093D01*
X0393444Y0325993D01*
X0393324Y0325895D01*
X0393201Y0325801D01*
X0393077Y0325710D01*
X0392949Y0325622D01*
X0392820Y0325537D01*
X0392689Y0325456D01*
X0392555Y0325378D01*
X0392420Y0325304D01*
X0392283Y0325233D01*
X0392143Y0325166D01*
X0392003Y0325102D01*
X0391860Y0325042D01*
X0391717Y0324986D01*
X0391571Y0324933D01*
X0391425Y0324884D01*
X0391277Y0324839D01*
X0391128Y0324798D01*
X0390978Y0324760D01*
X0390827Y0324727D01*
X0390676Y0324697D01*
X0390523Y0324671D01*
X0390370Y0324650D01*
X0390217Y0324632D01*
X0390063Y0324618D01*
X0389909Y0324608D01*
X0389754Y0324602D01*
X0389600Y0324600D01*
X0389446Y0324602D01*
X0389291Y0324608D01*
X0389137Y0324618D01*
X0388983Y0324632D01*
X0388830Y0324650D01*
X0388677Y0324671D01*
X0388524Y0324697D01*
X0388373Y0324727D01*
X0388222Y0324760D01*
X0388072Y0324798D01*
X0387923Y0324839D01*
X0387775Y0324884D01*
X0387629Y0324933D01*
X0387483Y0324986D01*
X0387340Y0325042D01*
X0387197Y0325102D01*
X0387057Y0325166D01*
X0386917Y0325233D01*
X0386780Y0325304D01*
X0386645Y0325378D01*
X0386511Y0325456D01*
X0386380Y0325537D01*
X0386251Y0325622D01*
X0386123Y0325710D01*
X0385999Y0325801D01*
X0385876Y0325895D01*
X0385756Y0325993D01*
X0385639Y0326093D01*
X0385524Y0326197D01*
X0385412Y0326303D01*
X0385303Y0326412D01*
X0385197Y0326524D01*
X0385093Y0326639D01*
X0384993Y0326756D01*
X0384895Y0326876D01*
X0384801Y0326999D01*
X0384710Y0327123D01*
X0384622Y0327251D01*
X0384537Y0327380D01*
X0384456Y0327511D01*
X0384378Y0327645D01*
X0384304Y0327780D01*
X0384233Y0327917D01*
X0384166Y0328057D01*
X0384102Y0328197D01*
X0384042Y0328340D01*
X0383986Y0328483D01*
X0383933Y0328629D01*
X0383884Y0328775D01*
X0383839Y0328923D01*
X0383798Y0329072D01*
X0383760Y0329222D01*
X0383727Y0329373D01*
X0383697Y0329524D01*
X0383671Y0329677D01*
X0383650Y0329830D01*
X0383632Y0329983D01*
X0383618Y0330137D01*
X0383608Y0330291D01*
X0383602Y0330446D01*
X0383600Y0330600D01*
X0383600Y0011600D02*
X0383602Y0011754D01*
X0383608Y0011909D01*
X0383618Y0012063D01*
X0383632Y0012217D01*
X0383650Y0012370D01*
X0383671Y0012523D01*
X0383697Y0012676D01*
X0383727Y0012827D01*
X0383760Y0012978D01*
X0383798Y0013128D01*
X0383839Y0013277D01*
X0383884Y0013425D01*
X0383933Y0013571D01*
X0383986Y0013717D01*
X0384042Y0013860D01*
X0384102Y0014003D01*
X0384166Y0014143D01*
X0384233Y0014283D01*
X0384304Y0014420D01*
X0384378Y0014555D01*
X0384456Y0014689D01*
X0384537Y0014820D01*
X0384622Y0014949D01*
X0384710Y0015077D01*
X0384801Y0015201D01*
X0384895Y0015324D01*
X0384993Y0015444D01*
X0385093Y0015561D01*
X0385197Y0015676D01*
X0385303Y0015788D01*
X0385412Y0015897D01*
X0385524Y0016003D01*
X0385639Y0016107D01*
X0385756Y0016207D01*
X0385876Y0016305D01*
X0385999Y0016399D01*
X0386123Y0016490D01*
X0386251Y0016578D01*
X0386380Y0016663D01*
X0386511Y0016744D01*
X0386645Y0016822D01*
X0386780Y0016896D01*
X0386917Y0016967D01*
X0387057Y0017034D01*
X0387197Y0017098D01*
X0387340Y0017158D01*
X0387483Y0017214D01*
X0387629Y0017267D01*
X0387775Y0017316D01*
X0387923Y0017361D01*
X0388072Y0017402D01*
X0388222Y0017440D01*
X0388373Y0017473D01*
X0388524Y0017503D01*
X0388677Y0017529D01*
X0388830Y0017550D01*
X0388983Y0017568D01*
X0389137Y0017582D01*
X0389291Y0017592D01*
X0389446Y0017598D01*
X0389600Y0017600D01*
X0389754Y0017598D01*
X0389909Y0017592D01*
X0390063Y0017582D01*
X0390217Y0017568D01*
X0390370Y0017550D01*
X0390523Y0017529D01*
X0390676Y0017503D01*
X0390827Y0017473D01*
X0390978Y0017440D01*
X0391128Y0017402D01*
X0391277Y0017361D01*
X0391425Y0017316D01*
X0391571Y0017267D01*
X0391717Y0017214D01*
X0391860Y0017158D01*
X0392003Y0017098D01*
X0392143Y0017034D01*
X0392283Y0016967D01*
X0392420Y0016896D01*
X0392555Y0016822D01*
X0392689Y0016744D01*
X0392820Y0016663D01*
X0392949Y0016578D01*
X0393077Y0016490D01*
X0393201Y0016399D01*
X0393324Y0016305D01*
X0393444Y0016207D01*
X0393561Y0016107D01*
X0393676Y0016003D01*
X0393788Y0015897D01*
X0393897Y0015788D01*
X0394003Y0015676D01*
X0394107Y0015561D01*
X0394207Y0015444D01*
X0394305Y0015324D01*
X0394399Y0015201D01*
X0394490Y0015077D01*
X0394578Y0014949D01*
X0394663Y0014820D01*
X0394744Y0014689D01*
X0394822Y0014555D01*
X0394896Y0014420D01*
X0394967Y0014283D01*
X0395034Y0014143D01*
X0395098Y0014003D01*
X0395158Y0013860D01*
X0395214Y0013717D01*
X0395267Y0013571D01*
X0395316Y0013425D01*
X0395361Y0013277D01*
X0395402Y0013128D01*
X0395440Y0012978D01*
X0395473Y0012827D01*
X0395503Y0012676D01*
X0395529Y0012523D01*
X0395550Y0012370D01*
X0395568Y0012217D01*
X0395582Y0012063D01*
X0395592Y0011909D01*
X0395598Y0011754D01*
X0395600Y0011600D01*
X0395598Y0011446D01*
X0395592Y0011291D01*
X0395582Y0011137D01*
X0395568Y0010983D01*
X0395550Y0010830D01*
X0395529Y0010677D01*
X0395503Y0010524D01*
X0395473Y0010373D01*
X0395440Y0010222D01*
X0395402Y0010072D01*
X0395361Y0009923D01*
X0395316Y0009775D01*
X0395267Y0009629D01*
X0395214Y0009483D01*
X0395158Y0009340D01*
X0395098Y0009197D01*
X0395034Y0009057D01*
X0394967Y0008917D01*
X0394896Y0008780D01*
X0394822Y0008645D01*
X0394744Y0008511D01*
X0394663Y0008380D01*
X0394578Y0008251D01*
X0394490Y0008123D01*
X0394399Y0007999D01*
X0394305Y0007876D01*
X0394207Y0007756D01*
X0394107Y0007639D01*
X0394003Y0007524D01*
X0393897Y0007412D01*
X0393788Y0007303D01*
X0393676Y0007197D01*
X0393561Y0007093D01*
X0393444Y0006993D01*
X0393324Y0006895D01*
X0393201Y0006801D01*
X0393077Y0006710D01*
X0392949Y0006622D01*
X0392820Y0006537D01*
X0392689Y0006456D01*
X0392555Y0006378D01*
X0392420Y0006304D01*
X0392283Y0006233D01*
X0392143Y0006166D01*
X0392003Y0006102D01*
X0391860Y0006042D01*
X0391717Y0005986D01*
X0391571Y0005933D01*
X0391425Y0005884D01*
X0391277Y0005839D01*
X0391128Y0005798D01*
X0390978Y0005760D01*
X0390827Y0005727D01*
X0390676Y0005697D01*
X0390523Y0005671D01*
X0390370Y0005650D01*
X0390217Y0005632D01*
X0390063Y0005618D01*
X0389909Y0005608D01*
X0389754Y0005602D01*
X0389600Y0005600D01*
X0389446Y0005602D01*
X0389291Y0005608D01*
X0389137Y0005618D01*
X0388983Y0005632D01*
X0388830Y0005650D01*
X0388677Y0005671D01*
X0388524Y0005697D01*
X0388373Y0005727D01*
X0388222Y0005760D01*
X0388072Y0005798D01*
X0387923Y0005839D01*
X0387775Y0005884D01*
X0387629Y0005933D01*
X0387483Y0005986D01*
X0387340Y0006042D01*
X0387197Y0006102D01*
X0387057Y0006166D01*
X0386917Y0006233D01*
X0386780Y0006304D01*
X0386645Y0006378D01*
X0386511Y0006456D01*
X0386380Y0006537D01*
X0386251Y0006622D01*
X0386123Y0006710D01*
X0385999Y0006801D01*
X0385876Y0006895D01*
X0385756Y0006993D01*
X0385639Y0007093D01*
X0385524Y0007197D01*
X0385412Y0007303D01*
X0385303Y0007412D01*
X0385197Y0007524D01*
X0385093Y0007639D01*
X0384993Y0007756D01*
X0384895Y0007876D01*
X0384801Y0007999D01*
X0384710Y0008123D01*
X0384622Y0008251D01*
X0384537Y0008380D01*
X0384456Y0008511D01*
X0384378Y0008645D01*
X0384304Y0008780D01*
X0384233Y0008917D01*
X0384166Y0009057D01*
X0384102Y0009197D01*
X0384042Y0009340D01*
X0383986Y0009483D01*
X0383933Y0009629D01*
X0383884Y0009775D01*
X0383839Y0009923D01*
X0383798Y0010072D01*
X0383760Y0010222D01*
X0383727Y0010373D01*
X0383697Y0010524D01*
X0383671Y0010677D01*
X0383650Y0010830D01*
X0383632Y0010983D01*
X0383618Y0011137D01*
X0383608Y0011291D01*
X0383602Y0011446D01*
X0383600Y0011600D01*
M02*
