G75*
%MOIN*%
%OFA0B0*%
%FSLAX25Y25*%
%IPPOS*%
%LPD*%
%AMOC8*
5,1,8,0,0,1.08239X$1,22.5*
%
%ADD10C,0.12800*%
%ADD11C,0.06000*%
%ADD12OC8,0.06000*%
%ADD13C,0.06800*%
%ADD14C,0.06000*%
%ADD15C,0.08200*%
%ADD16OC8,0.13200*%
%ADD17C,0.08600*%
D10*
X0011600Y0011600D03*
X0011600Y0330600D03*
X0389600Y0330600D03*
X0389600Y0011600D03*
D11*
X0341700Y0036600D02*
X0336500Y0036600D01*
X0336500Y0046600D02*
X0341700Y0046600D01*
X0341700Y0056600D02*
X0336500Y0056600D01*
X0336500Y0066600D02*
X0341700Y0066600D01*
X0311700Y0066600D02*
X0306500Y0066600D01*
X0296700Y0061600D02*
X0291500Y0061600D01*
X0291500Y0071600D02*
X0296700Y0071600D01*
X0296700Y0081600D02*
X0291500Y0081600D01*
X0291500Y0091600D02*
X0296700Y0091600D01*
X0296700Y0101600D02*
X0291500Y0101600D01*
X0266700Y0101600D02*
X0261500Y0101600D01*
X0261500Y0091600D02*
X0266700Y0091600D01*
X0266700Y0081600D02*
X0261500Y0081600D01*
X0261500Y0071600D02*
X0266700Y0071600D01*
X0266700Y0061600D02*
X0261500Y0061600D01*
X0261500Y0051600D02*
X0266700Y0051600D01*
X0266700Y0041600D02*
X0261500Y0041600D01*
X0239200Y0064100D02*
X0234000Y0064100D01*
X0234000Y0074100D02*
X0239200Y0074100D01*
X0239200Y0084100D02*
X0234000Y0084100D01*
X0234000Y0094100D02*
X0239200Y0094100D01*
X0239200Y0104100D02*
X0234000Y0104100D01*
X0234000Y0114100D02*
X0239200Y0114100D01*
X0239200Y0124100D02*
X0234000Y0124100D01*
X0234000Y0134100D02*
X0239200Y0134100D01*
X0209200Y0134100D02*
X0204000Y0134100D01*
X0204000Y0124100D02*
X0209200Y0124100D01*
X0209200Y0114100D02*
X0204000Y0114100D01*
X0204000Y0104100D02*
X0209200Y0104100D01*
X0209200Y0094100D02*
X0204000Y0094100D01*
X0204000Y0084100D02*
X0209200Y0084100D01*
X0209200Y0074100D02*
X0204000Y0074100D01*
X0204000Y0064100D02*
X0209200Y0064100D01*
X0189200Y0101600D02*
X0184000Y0101600D01*
X0184000Y0111600D02*
X0189200Y0111600D01*
X0189200Y0121600D02*
X0184000Y0121600D01*
X0184000Y0131600D02*
X0189200Y0131600D01*
X0189200Y0141600D02*
X0184000Y0141600D01*
X0184000Y0151600D02*
X0189200Y0151600D01*
X0189200Y0161600D02*
X0184000Y0161600D01*
X0184000Y0171600D02*
X0189200Y0171600D01*
X0189200Y0181600D02*
X0184000Y0181600D01*
X0184000Y0191600D02*
X0189200Y0191600D01*
X0189200Y0201600D02*
X0184000Y0201600D01*
X0184000Y0211600D02*
X0189200Y0211600D01*
X0189200Y0221600D02*
X0184000Y0221600D01*
X0184000Y0231600D02*
X0189200Y0231600D01*
X0189200Y0241600D02*
X0184000Y0241600D01*
X0184000Y0251600D02*
X0189200Y0251600D01*
X0189200Y0261600D02*
X0184000Y0261600D01*
X0184000Y0271600D02*
X0189200Y0271600D01*
X0189200Y0281600D02*
X0184000Y0281600D01*
X0184000Y0291600D02*
X0189200Y0291600D01*
X0214000Y0284100D02*
X0219200Y0284100D01*
X0219200Y0274100D02*
X0214000Y0274100D01*
X0214000Y0264100D02*
X0219200Y0264100D01*
X0219200Y0254100D02*
X0214000Y0254100D01*
X0214000Y0244100D02*
X0219200Y0244100D01*
X0219200Y0234100D02*
X0214000Y0234100D01*
X0214000Y0224100D02*
X0219200Y0224100D01*
X0219200Y0214100D02*
X0214000Y0214100D01*
X0244000Y0214100D02*
X0249200Y0214100D01*
X0249200Y0224100D02*
X0244000Y0224100D01*
X0244000Y0234100D02*
X0249200Y0234100D01*
X0249200Y0244100D02*
X0244000Y0244100D01*
X0244000Y0254100D02*
X0249200Y0254100D01*
X0249200Y0264100D02*
X0244000Y0264100D01*
X0244000Y0274100D02*
X0249200Y0274100D01*
X0249200Y0284100D02*
X0244000Y0284100D01*
X0279000Y0284100D02*
X0284200Y0284100D01*
X0284200Y0274100D02*
X0279000Y0274100D01*
X0279000Y0264100D02*
X0284200Y0264100D01*
X0284200Y0254100D02*
X0279000Y0254100D01*
X0279000Y0244100D02*
X0284200Y0244100D01*
X0284200Y0234100D02*
X0279000Y0234100D01*
X0279000Y0224100D02*
X0284200Y0224100D01*
X0284200Y0214100D02*
X0279000Y0214100D01*
X0309000Y0214100D02*
X0314200Y0214100D01*
X0314200Y0224100D02*
X0309000Y0224100D01*
X0309000Y0234100D02*
X0314200Y0234100D01*
X0314200Y0244100D02*
X0309000Y0244100D01*
X0309000Y0254100D02*
X0314200Y0254100D01*
X0314200Y0264100D02*
X0309000Y0264100D01*
X0309000Y0274100D02*
X0314200Y0274100D01*
X0314200Y0284100D02*
X0309000Y0284100D01*
X0344000Y0284100D02*
X0349200Y0284100D01*
X0349200Y0274100D02*
X0344000Y0274100D01*
X0344000Y0264100D02*
X0349200Y0264100D01*
X0349200Y0254100D02*
X0344000Y0254100D01*
X0344000Y0244100D02*
X0349200Y0244100D01*
X0349200Y0234100D02*
X0344000Y0234100D01*
X0344000Y0224100D02*
X0349200Y0224100D01*
X0349200Y0214100D02*
X0344000Y0214100D01*
X0341700Y0186600D02*
X0336500Y0186600D01*
X0336500Y0176600D02*
X0341700Y0176600D01*
X0341700Y0166600D02*
X0336500Y0166600D01*
X0336500Y0156600D02*
X0341700Y0156600D01*
X0311700Y0156600D02*
X0306500Y0156600D01*
X0306500Y0166600D02*
X0311700Y0166600D01*
X0311700Y0176600D02*
X0306500Y0176600D01*
X0306500Y0186600D02*
X0311700Y0186600D01*
X0289100Y0179200D02*
X0289100Y0174000D01*
X0289100Y0149200D02*
X0289100Y0144000D01*
X0374000Y0214100D02*
X0379200Y0214100D01*
X0379200Y0224100D02*
X0374000Y0224100D01*
X0374000Y0234100D02*
X0379200Y0234100D01*
X0379200Y0244100D02*
X0374000Y0244100D01*
X0374000Y0254100D02*
X0379200Y0254100D01*
X0379200Y0264100D02*
X0374000Y0264100D01*
X0374000Y0274100D02*
X0379200Y0274100D01*
X0379200Y0284100D02*
X0374000Y0284100D01*
X0129200Y0281600D02*
X0124000Y0281600D01*
X0124000Y0271600D02*
X0129200Y0271600D01*
X0129200Y0261600D02*
X0124000Y0261600D01*
X0124000Y0251600D02*
X0129200Y0251600D01*
X0129200Y0241600D02*
X0124000Y0241600D01*
X0124000Y0231600D02*
X0129200Y0231600D01*
X0129200Y0221600D02*
X0124000Y0221600D01*
X0124000Y0211600D02*
X0129200Y0211600D01*
X0129200Y0201600D02*
X0124000Y0201600D01*
X0124000Y0191600D02*
X0129200Y0191600D01*
X0129200Y0181600D02*
X0124000Y0181600D01*
X0124000Y0171600D02*
X0129200Y0171600D01*
X0129200Y0161600D02*
X0124000Y0161600D01*
X0124000Y0151600D02*
X0129200Y0151600D01*
X0129200Y0141600D02*
X0124000Y0141600D01*
X0124000Y0131600D02*
X0129200Y0131600D01*
X0129200Y0121600D02*
X0124000Y0121600D01*
X0124000Y0111600D02*
X0129200Y0111600D01*
X0129200Y0101600D02*
X0124000Y0101600D01*
X0291500Y0051600D02*
X0296700Y0051600D01*
X0306500Y0046600D02*
X0311700Y0046600D01*
X0311700Y0036600D02*
X0306500Y0036600D01*
X0296700Y0041600D02*
X0291500Y0041600D01*
X0306500Y0056600D02*
X0311700Y0056600D01*
X0129200Y0291600D02*
X0124000Y0291600D01*
D12*
X0189600Y0311600D03*
X0189600Y0321600D03*
X0201600Y0321600D03*
X0201600Y0311600D03*
X0226600Y0184100D03*
X0236600Y0184100D03*
X0354100Y0166600D03*
X0354100Y0156600D03*
X0226600Y0041600D03*
X0216600Y0041600D03*
X0214100Y0023100D03*
X0204100Y0023100D03*
X0109100Y0084100D03*
X0099100Y0084100D03*
X0099100Y0171600D03*
X0109100Y0171600D03*
D13*
X0059600Y0171600D02*
X0053600Y0171600D01*
X0053600Y0161600D02*
X0059600Y0161600D01*
X0059600Y0151600D02*
X0053600Y0151600D01*
X0053600Y0141600D02*
X0059600Y0141600D01*
X0059600Y0131600D02*
X0053600Y0131600D01*
X0053600Y0121600D02*
X0059600Y0121600D01*
X0059600Y0111600D02*
X0053600Y0111600D01*
X0053600Y0101600D02*
X0059600Y0101600D01*
X0059600Y0091600D02*
X0053600Y0091600D01*
X0053600Y0081600D02*
X0059600Y0081600D01*
X0059600Y0181600D02*
X0053600Y0181600D01*
X0053600Y0191600D02*
X0059600Y0191600D01*
X0059600Y0201600D02*
X0053600Y0201600D01*
X0053600Y0211600D02*
X0059600Y0211600D01*
X0059600Y0221600D02*
X0053600Y0221600D01*
X0053600Y0231600D02*
X0059600Y0231600D01*
X0059600Y0249100D02*
X0053600Y0249100D01*
X0053600Y0259100D02*
X0059600Y0259100D01*
X0059600Y0269100D02*
X0053600Y0269100D01*
X0053600Y0279100D02*
X0059600Y0279100D01*
X0059600Y0289100D02*
X0053600Y0289100D01*
X0053600Y0299100D02*
X0059600Y0299100D01*
X0059600Y0309100D02*
X0053600Y0309100D01*
X0053600Y0319100D02*
X0059600Y0319100D01*
X0140300Y0320500D02*
X0146300Y0320500D01*
X0146300Y0302700D02*
X0140300Y0302700D01*
X0165900Y0302700D02*
X0171900Y0302700D01*
X0171900Y0320500D02*
X0165900Y0320500D01*
D14*
X0101600Y0126100D03*
X0101600Y0107100D03*
D15*
X0156600Y0086600D03*
X0171600Y0086600D03*
X0186600Y0086600D03*
X0186600Y0056600D03*
X0171600Y0056600D03*
X0156600Y0056600D03*
X0244100Y0051600D03*
X0254100Y0051600D03*
X0254100Y0021600D03*
X0244100Y0021600D03*
X0304100Y0084100D03*
X0314100Y0084100D03*
X0324100Y0084100D03*
X0334100Y0084100D03*
X0344100Y0084100D03*
X0354100Y0084100D03*
X0364100Y0084100D03*
X0364100Y0114100D03*
X0354100Y0114100D03*
X0344100Y0114100D03*
X0334100Y0114100D03*
X0324100Y0114100D03*
X0314100Y0114100D03*
X0304100Y0114100D03*
X0304100Y0131600D03*
X0274100Y0131600D03*
X0269100Y0146600D03*
X0269100Y0176600D03*
X0324100Y0284100D03*
X0324100Y0314100D03*
X0074100Y0241600D03*
X0074100Y0211600D03*
X0034100Y0211600D03*
X0034100Y0241600D03*
D16*
X0331600Y0021600D03*
X0359100Y0021600D03*
D17*
X0183400Y0025500D02*
X0183400Y0017700D01*
X0163700Y0017700D02*
X0163700Y0025500D01*
X0144000Y0025500D02*
X0144000Y0017700D01*
X0124200Y0017700D02*
X0124200Y0025500D01*
X0104500Y0025500D02*
X0104500Y0017700D01*
X0084800Y0017700D02*
X0084800Y0025500D01*
M02*
