%
M48
M72
T01C0.0150
T02C0.0320
T03C0.0354
T04C0.0400
T05C0.0520
T06C0.0790
T07C0.1200
%
T01
X25910Y22160
X29660Y20410
X31910Y18660
X33660Y19360
X32910Y20410
X30160Y24910
X29660Y25410
X28910Y26410
X33160Y25410
X33660Y29910
X36410Y29910
X30160Y30160
X31660Y13910
X28660Y12160
X30410Y10660
X28160Y13910
X37160Y9910
X37160Y7410
T02
X33910Y6660
X33910Y5660
X33910Y4660
X33910Y3660
X35260Y3260
X36260Y3260
X30910Y3660
X30910Y4660
X30910Y5660
X30910Y6660
X29410Y6160
X29410Y7160
X29410Y8160
X29410Y9160
X29410Y10160
X26410Y10160
X26410Y9160
X26410Y8160
X26410Y7160
X26410Y6160
X26410Y5160
X26410Y4160
X23660Y6410
X23660Y7410
X23660Y8410
X23660Y9410
X23660Y10410
X23660Y11410
X23660Y12410
X23660Y13410
X20660Y13410
X20660Y12410
X20660Y11410
X20660Y10410
X20660Y9410
X20660Y8410
X20660Y7410
X20660Y6410
X21660Y4160
X22660Y4160
X21410Y2310
X20410Y2310
X18660Y10160
X18660Y11160
X18660Y12160
X18660Y13160
X18660Y14160
X18660Y15160
X18660Y16160
X18660Y17160
X18660Y18160
X18660Y19160
X18660Y20160
X18660Y21160
X18660Y22160
X18660Y23160
X18660Y24160
X18660Y25160
X18660Y26160
X18660Y27160
X18660Y28160
X18660Y29160
X18960Y31160
X18960Y32160
X20160Y32160
X20160Y31160
X21660Y28410
X21660Y27410
X21660Y26410
X21660Y25410
X21660Y24410
X21660Y23410
X21660Y22410
X21660Y21410
X24660Y21410
X24660Y22410
X24660Y23410
X24660Y24410
X24660Y25410
X24660Y26410
X24660Y27410
X24660Y28410
X28160Y28410
X28160Y27410
X28160Y26410
X28160Y25410
X28160Y24410
X28160Y23410
X28160Y22410
X28160Y21410
X31160Y21410
X31160Y22410
X31160Y23410
X31160Y24410
X31160Y25410
X31160Y26410
X31160Y27410
X31160Y28410
X34660Y28410
X34660Y27410
X34660Y26410
X34660Y25410
X34660Y24410
X34660Y23410
X34660Y22410
X34660Y21410
X33910Y18660
X33910Y17660
X33910Y16660
X33910Y15660
X35410Y15660
X35410Y16660
X30910Y16660
X30910Y15660
X28910Y14660
X28910Y17660
X30910Y17660
X30910Y18660
X37660Y21410
X37660Y22410
X37660Y23410
X37660Y24410
X37660Y25410
X37660Y26410
X37660Y27410
X37660Y28410
X23660Y18410
X22660Y18410
X12660Y18160
X12660Y17160
X12660Y16160
X12660Y15160
X12660Y14160
X12660Y13160
X12660Y12160
X12660Y11160
X12660Y10160
X10910Y8410
X9910Y8410
X10160Y10710
X10160Y12610
X9910Y17160
X10910Y17160
X12660Y19160
X12660Y20160
X12660Y21160
X12660Y22160
X12660Y23160
X12660Y24160
X12660Y25160
X12660Y26160
X12660Y27160
X12660Y28160
X12660Y29160
X29410Y5160
X29410Y4160
T03
X25310Y5160
X24410Y5160
X24410Y2160
X25310Y2160
X18260Y5660
X16960Y5660
X15660Y5660
X15660Y8660
X16960Y8660
X18260Y8660
X26910Y14660
X27410Y13160
X30410Y13160
X30410Y11410
X31410Y11410
X32410Y11410
X33410Y11410
X34410Y11410
X35410Y11410
X36410Y11410
X36410Y8410
X35410Y8410
X34410Y8410
X33410Y8410
X32410Y8410
X31410Y8410
X30410Y8410
X26910Y17660
X32410Y28410
X32410Y31410
X7410Y24160
X7410Y21160
X3410Y21160
X3410Y24160
T04
X5660Y23160
X5660Y22160
X5660Y21160
X5660Y20160
X5660Y19160
X5660Y18160
X5660Y17160
X5660Y16160
X5660Y15160
X5660Y14160
X5660Y13160
X5660Y12160
X5660Y11160
X5660Y10160
X5660Y9160
X5660Y8160
X10220Y22160
X10220Y23160
X10220Y24160
X10220Y25160
X10220Y26160
X10220Y27160
X10220Y28160
X10220Y29160
X14330Y30270
X14330Y32050
X16890Y32050
X16890Y30270
T05
X16370Y2160
X14400Y2160
X12420Y2160
X10450Y2160
X8480Y2160
X18340Y2160
T06
X33860Y1660
X35610Y1660
T07
X1160Y1160
X1160Y33060
X38960Y33060
X38960Y1160
M30
