G75*
%MOIN*%
%OFA0B0*%
%FSLAX25Y25*%
%IPPOS*%
%LPD*%
%AMOC8*
5,1,8,0,0,1.08239X$1,22.5*
%
%ADD10C,0.05200*%
%ADD11OC8,0.05200*%
%ADD12C,0.06000*%
%ADD13C,0.05200*%
%ADD14C,0.07400*%
%ADD15OC8,0.12400*%
%ADD16C,0.07800*%
%ADD17C,0.02400*%
%ADD18C,0.03500*%
D10*
X0124000Y0101600D02*
X0129200Y0101600D01*
X0129200Y0111600D02*
X0124000Y0111600D01*
X0124000Y0121600D02*
X0129200Y0121600D01*
X0129200Y0131600D02*
X0124000Y0131600D01*
X0124000Y0141600D02*
X0129200Y0141600D01*
X0129200Y0151600D02*
X0124000Y0151600D01*
X0124000Y0161600D02*
X0129200Y0161600D01*
X0129200Y0171600D02*
X0124000Y0171600D01*
X0124000Y0181600D02*
X0129200Y0181600D01*
X0129200Y0191600D02*
X0124000Y0191600D01*
X0124000Y0201600D02*
X0129200Y0201600D01*
X0129200Y0211600D02*
X0124000Y0211600D01*
X0124000Y0221600D02*
X0129200Y0221600D01*
X0129200Y0231600D02*
X0124000Y0231600D01*
X0124000Y0241600D02*
X0129200Y0241600D01*
X0129200Y0251600D02*
X0124000Y0251600D01*
X0124000Y0261600D02*
X0129200Y0261600D01*
X0129200Y0271600D02*
X0124000Y0271600D01*
X0124000Y0281600D02*
X0129200Y0281600D01*
X0129200Y0291600D02*
X0124000Y0291600D01*
X0184000Y0291600D02*
X0189200Y0291600D01*
X0189200Y0281600D02*
X0184000Y0281600D01*
X0184000Y0271600D02*
X0189200Y0271600D01*
X0189200Y0261600D02*
X0184000Y0261600D01*
X0184000Y0251600D02*
X0189200Y0251600D01*
X0189200Y0241600D02*
X0184000Y0241600D01*
X0184000Y0231600D02*
X0189200Y0231600D01*
X0189200Y0221600D02*
X0184000Y0221600D01*
X0184000Y0211600D02*
X0189200Y0211600D01*
X0189200Y0201600D02*
X0184000Y0201600D01*
X0184000Y0191600D02*
X0189200Y0191600D01*
X0189200Y0181600D02*
X0184000Y0181600D01*
X0184000Y0171600D02*
X0189200Y0171600D01*
X0189200Y0161600D02*
X0184000Y0161600D01*
X0184000Y0151600D02*
X0189200Y0151600D01*
X0189200Y0141600D02*
X0184000Y0141600D01*
X0184000Y0131600D02*
X0189200Y0131600D01*
X0189200Y0121600D02*
X0184000Y0121600D01*
X0184000Y0111600D02*
X0189200Y0111600D01*
X0189200Y0101600D02*
X0184000Y0101600D01*
X0204000Y0104100D02*
X0209200Y0104100D01*
X0209200Y0094100D02*
X0204000Y0094100D01*
X0204000Y0084100D02*
X0209200Y0084100D01*
X0209200Y0074100D02*
X0204000Y0074100D01*
X0204000Y0064100D02*
X0209200Y0064100D01*
X0234000Y0064100D02*
X0239200Y0064100D01*
X0239200Y0074100D02*
X0234000Y0074100D01*
X0234000Y0084100D02*
X0239200Y0084100D01*
X0239200Y0094100D02*
X0234000Y0094100D01*
X0234000Y0104100D02*
X0239200Y0104100D01*
X0239200Y0114100D02*
X0234000Y0114100D01*
X0234000Y0124100D02*
X0239200Y0124100D01*
X0239200Y0134100D02*
X0234000Y0134100D01*
X0209200Y0134100D02*
X0204000Y0134100D01*
X0204000Y0124100D02*
X0209200Y0124100D01*
X0209200Y0114100D02*
X0204000Y0114100D01*
X0261500Y0101600D02*
X0266700Y0101600D01*
X0266700Y0091600D02*
X0261500Y0091600D01*
X0261500Y0081600D02*
X0266700Y0081600D01*
X0266700Y0071600D02*
X0261500Y0071600D01*
X0261500Y0061600D02*
X0266700Y0061600D01*
X0266700Y0051600D02*
X0261500Y0051600D01*
X0261500Y0041600D02*
X0266700Y0041600D01*
X0291500Y0041600D02*
X0296700Y0041600D01*
X0306500Y0036600D02*
X0311700Y0036600D01*
X0311700Y0046600D02*
X0306500Y0046600D01*
X0296700Y0051600D02*
X0291500Y0051600D01*
X0291500Y0061600D02*
X0296700Y0061600D01*
X0296700Y0071600D02*
X0291500Y0071600D01*
X0291500Y0081600D02*
X0296700Y0081600D01*
X0296700Y0091600D02*
X0291500Y0091600D01*
X0291500Y0101600D02*
X0296700Y0101600D01*
X0306500Y0066600D02*
X0311700Y0066600D01*
X0311700Y0056600D02*
X0306500Y0056600D01*
X0336500Y0056600D02*
X0341700Y0056600D01*
X0341700Y0046600D02*
X0336500Y0046600D01*
X0336500Y0036600D02*
X0341700Y0036600D01*
X0341700Y0066600D02*
X0336500Y0066600D01*
X0289100Y0144000D02*
X0289100Y0149200D01*
X0306500Y0156600D02*
X0311700Y0156600D01*
X0311700Y0166600D02*
X0306500Y0166600D01*
X0306500Y0176600D02*
X0311700Y0176600D01*
X0311700Y0186600D02*
X0306500Y0186600D01*
X0289100Y0179200D02*
X0289100Y0174000D01*
X0336500Y0176600D02*
X0341700Y0176600D01*
X0341700Y0166600D02*
X0336500Y0166600D01*
X0336500Y0156600D02*
X0341700Y0156600D01*
X0341700Y0186600D02*
X0336500Y0186600D01*
X0344000Y0214100D02*
X0349200Y0214100D01*
X0349200Y0224100D02*
X0344000Y0224100D01*
X0344000Y0234100D02*
X0349200Y0234100D01*
X0349200Y0244100D02*
X0344000Y0244100D01*
X0344000Y0254100D02*
X0349200Y0254100D01*
X0349200Y0264100D02*
X0344000Y0264100D01*
X0344000Y0274100D02*
X0349200Y0274100D01*
X0349200Y0284100D02*
X0344000Y0284100D01*
X0314200Y0284100D02*
X0309000Y0284100D01*
X0309000Y0274100D02*
X0314200Y0274100D01*
X0314200Y0264100D02*
X0309000Y0264100D01*
X0309000Y0254100D02*
X0314200Y0254100D01*
X0314200Y0244100D02*
X0309000Y0244100D01*
X0309000Y0234100D02*
X0314200Y0234100D01*
X0314200Y0224100D02*
X0309000Y0224100D01*
X0309000Y0214100D02*
X0314200Y0214100D01*
X0284200Y0214100D02*
X0279000Y0214100D01*
X0279000Y0224100D02*
X0284200Y0224100D01*
X0284200Y0234100D02*
X0279000Y0234100D01*
X0279000Y0244100D02*
X0284200Y0244100D01*
X0284200Y0254100D02*
X0279000Y0254100D01*
X0279000Y0264100D02*
X0284200Y0264100D01*
X0284200Y0274100D02*
X0279000Y0274100D01*
X0279000Y0284100D02*
X0284200Y0284100D01*
X0249200Y0284100D02*
X0244000Y0284100D01*
X0244000Y0274100D02*
X0249200Y0274100D01*
X0249200Y0264100D02*
X0244000Y0264100D01*
X0244000Y0254100D02*
X0249200Y0254100D01*
X0249200Y0244100D02*
X0244000Y0244100D01*
X0244000Y0234100D02*
X0249200Y0234100D01*
X0249200Y0224100D02*
X0244000Y0224100D01*
X0244000Y0214100D02*
X0249200Y0214100D01*
X0219200Y0214100D02*
X0214000Y0214100D01*
X0214000Y0224100D02*
X0219200Y0224100D01*
X0219200Y0234100D02*
X0214000Y0234100D01*
X0214000Y0244100D02*
X0219200Y0244100D01*
X0219200Y0254100D02*
X0214000Y0254100D01*
X0214000Y0264100D02*
X0219200Y0264100D01*
X0219200Y0274100D02*
X0214000Y0274100D01*
X0214000Y0284100D02*
X0219200Y0284100D01*
X0374000Y0284100D02*
X0379200Y0284100D01*
X0379200Y0274100D02*
X0374000Y0274100D01*
X0374000Y0264100D02*
X0379200Y0264100D01*
X0379200Y0254100D02*
X0374000Y0254100D01*
X0374000Y0244100D02*
X0379200Y0244100D01*
X0379200Y0234100D02*
X0374000Y0234100D01*
X0374000Y0224100D02*
X0379200Y0224100D01*
X0379200Y0214100D02*
X0374000Y0214100D01*
D11*
X0354100Y0166600D03*
X0354100Y0156600D03*
X0236600Y0184100D03*
X0226600Y0184100D03*
X0109100Y0171600D03*
X0099100Y0171600D03*
X0099100Y0084100D03*
X0109100Y0084100D03*
X0204100Y0023100D03*
X0214100Y0023100D03*
X0216600Y0041600D03*
X0226600Y0041600D03*
X0201600Y0311600D03*
X0201600Y0321600D03*
X0189600Y0321600D03*
X0189600Y0311600D03*
D12*
X0171900Y0302700D02*
X0165900Y0302700D01*
X0165900Y0320500D02*
X0171900Y0320500D01*
X0146300Y0320500D02*
X0140300Y0320500D01*
X0140300Y0302700D02*
X0146300Y0302700D01*
X0059600Y0299100D02*
X0053600Y0299100D01*
X0053600Y0289100D02*
X0059600Y0289100D01*
X0059600Y0279100D02*
X0053600Y0279100D01*
X0053600Y0269100D02*
X0059600Y0269100D01*
X0059600Y0259100D02*
X0053600Y0259100D01*
X0053600Y0249100D02*
X0059600Y0249100D01*
X0059600Y0231600D02*
X0053600Y0231600D01*
X0053600Y0221600D02*
X0059600Y0221600D01*
X0059600Y0211600D02*
X0053600Y0211600D01*
X0053600Y0201600D02*
X0059600Y0201600D01*
X0059600Y0191600D02*
X0053600Y0191600D01*
X0053600Y0181600D02*
X0059600Y0181600D01*
X0059600Y0171600D02*
X0053600Y0171600D01*
X0053600Y0161600D02*
X0059600Y0161600D01*
X0059600Y0151600D02*
X0053600Y0151600D01*
X0053600Y0141600D02*
X0059600Y0141600D01*
X0059600Y0131600D02*
X0053600Y0131600D01*
X0053600Y0121600D02*
X0059600Y0121600D01*
X0059600Y0111600D02*
X0053600Y0111600D01*
X0053600Y0101600D02*
X0059600Y0101600D01*
X0059600Y0091600D02*
X0053600Y0091600D01*
X0053600Y0081600D02*
X0059600Y0081600D01*
X0059600Y0309100D02*
X0053600Y0309100D01*
X0053600Y0319100D02*
X0059600Y0319100D01*
D13*
X0101600Y0126100D03*
X0101600Y0107100D03*
D14*
X0156600Y0086600D03*
X0171600Y0086600D03*
X0186600Y0086600D03*
X0186600Y0056600D03*
X0171600Y0056600D03*
X0156600Y0056600D03*
X0244100Y0051600D03*
X0254100Y0051600D03*
X0254100Y0021600D03*
X0244100Y0021600D03*
X0304100Y0084100D03*
X0314100Y0084100D03*
X0324100Y0084100D03*
X0334100Y0084100D03*
X0344100Y0084100D03*
X0354100Y0084100D03*
X0364100Y0084100D03*
X0364100Y0114100D03*
X0354100Y0114100D03*
X0344100Y0114100D03*
X0334100Y0114100D03*
X0324100Y0114100D03*
X0314100Y0114100D03*
X0304100Y0114100D03*
X0304100Y0131600D03*
X0274100Y0131600D03*
X0269100Y0146600D03*
X0269100Y0176600D03*
X0324100Y0284100D03*
X0324100Y0314100D03*
X0074100Y0241600D03*
X0074100Y0211600D03*
X0034100Y0211600D03*
X0034100Y0241600D03*
D15*
X0331600Y0021600D03*
X0359100Y0021600D03*
D16*
X0084800Y0025500D02*
X0084800Y0017700D01*
X0104500Y0017700D02*
X0104500Y0025500D01*
X0124200Y0025500D02*
X0124200Y0017700D01*
X0144000Y0017700D02*
X0144000Y0025500D01*
X0163700Y0025500D02*
X0163700Y0017700D01*
X0183400Y0017700D02*
X0183400Y0025500D01*
D17*
X0183400Y0023400D02*
X0189100Y0029100D01*
X0221600Y0029100D01*
X0226600Y0034100D01*
X0226600Y0041600D01*
X0236600Y0054100D02*
X0239100Y0056600D01*
X0186600Y0056600D01*
X0184100Y0074100D02*
X0206600Y0074100D01*
X0206600Y0084100D02*
X0194100Y0084100D01*
X0191600Y0086600D01*
X0186600Y0086600D01*
X0184100Y0074100D02*
X0171600Y0086600D01*
X0156600Y0086600D02*
X0156600Y0094100D01*
X0206600Y0094100D01*
X0206600Y0104100D02*
X0189100Y0104100D01*
X0186600Y0101600D01*
X0186600Y0111600D02*
X0189100Y0114100D01*
X0206600Y0114100D01*
X0206600Y0124100D02*
X0189100Y0124100D01*
X0186600Y0121600D01*
X0186600Y0131600D02*
X0189100Y0134100D01*
X0206600Y0134100D01*
X0186600Y0141600D02*
X0229100Y0141600D01*
X0236600Y0134100D01*
X0246600Y0136600D02*
X0246600Y0126600D01*
X0244100Y0124100D01*
X0236600Y0124100D01*
X0236600Y0114100D02*
X0246600Y0114100D01*
X0251600Y0119100D01*
X0251600Y0144100D01*
X0234100Y0161600D01*
X0186600Y0161600D01*
X0186600Y0151600D02*
X0231600Y0151600D01*
X0246600Y0136600D01*
X0259100Y0146600D02*
X0259100Y0114100D01*
X0249100Y0104100D01*
X0236600Y0104100D01*
X0236600Y0094100D02*
X0239100Y0091600D01*
X0264100Y0091600D01*
X0264100Y0101600D02*
X0264100Y0109100D01*
X0269100Y0114100D01*
X0304100Y0114100D01*
X0304100Y0106600D02*
X0284100Y0106600D01*
X0281600Y0104100D01*
X0281600Y0054100D01*
X0279100Y0051600D01*
X0264100Y0051600D01*
X0254100Y0051600D01*
X0244100Y0051600D02*
X0244100Y0034100D01*
X0246600Y0031600D01*
X0281600Y0031600D01*
X0286600Y0036600D01*
X0286600Y0049100D01*
X0289100Y0051600D01*
X0294100Y0051600D01*
X0301600Y0049100D02*
X0304100Y0046600D01*
X0309100Y0046600D01*
X0301600Y0049100D02*
X0301600Y0059100D01*
X0299100Y0061600D01*
X0294100Y0061600D01*
X0294100Y0071600D02*
X0295100Y0072600D01*
X0317600Y0072600D01*
X0317600Y0040100D01*
X0314100Y0036600D01*
X0309100Y0036600D01*
X0321600Y0048600D02*
X0321600Y0016600D01*
X0314100Y0009100D01*
X0236600Y0009100D01*
X0236600Y0054100D01*
X0239100Y0056600D02*
X0246600Y0064100D01*
X0246600Y0069100D01*
X0249100Y0071600D01*
X0264100Y0071600D01*
X0314100Y0114100D02*
X0306600Y0121600D01*
X0286600Y0121600D01*
X0281600Y0139100D02*
X0316600Y0139100D01*
X0326600Y0146600D02*
X0299100Y0146600D01*
X0299100Y0161600D01*
X0304100Y0166600D01*
X0309100Y0166600D01*
X0309100Y0176600D02*
X0289100Y0176600D01*
X0269100Y0176600D01*
X0266600Y0204100D02*
X0239100Y0204100D01*
X0229100Y0214100D01*
X0229100Y0261600D01*
X0226600Y0264100D01*
X0216600Y0264100D01*
X0246600Y0254100D02*
X0251600Y0254100D01*
X0256600Y0259100D01*
X0256600Y0274100D01*
X0276600Y0294100D01*
X0381600Y0294100D01*
X0384100Y0291600D01*
X0384100Y0276600D01*
X0381600Y0274100D01*
X0376600Y0274100D01*
X0364100Y0299100D02*
X0336600Y0299100D01*
X0311600Y0284100D02*
X0309100Y0284100D01*
X0301600Y0276600D01*
X0301600Y0249100D01*
X0296600Y0254100D02*
X0281600Y0254100D01*
X0281600Y0244100D02*
X0271600Y0244100D01*
X0251600Y0224100D01*
X0246600Y0224100D01*
X0259100Y0221600D02*
X0271600Y0234100D01*
X0281600Y0234100D01*
X0281600Y0224100D02*
X0276600Y0224100D01*
X0271600Y0219100D01*
X0271600Y0209100D01*
X0266600Y0204100D01*
X0296600Y0204100D02*
X0329100Y0204100D01*
X0339100Y0206600D02*
X0356600Y0206600D01*
X0361600Y0211600D01*
X0361600Y0219100D01*
X0366600Y0224100D01*
X0376600Y0224100D01*
X0372600Y0196600D02*
X0381600Y0187600D01*
X0381600Y0176600D01*
X0381600Y0028600D01*
X0374600Y0021600D01*
X0359100Y0021600D01*
X0349100Y0046600D02*
X0339100Y0046600D01*
X0334100Y0046600D01*
X0331600Y0044100D01*
X0331600Y0021600D01*
X0349100Y0046600D02*
X0354100Y0051600D01*
X0354100Y0084100D01*
X0364100Y0094100D01*
X0364100Y0114100D01*
X0371600Y0099100D02*
X0371600Y0074100D01*
X0349100Y0079100D02*
X0349100Y0061600D01*
X0344100Y0056600D01*
X0339100Y0056600D01*
X0329600Y0056600D01*
X0321600Y0048600D01*
X0319600Y0072600D02*
X0324100Y0077100D01*
X0324100Y0084100D01*
X0334100Y0084100D02*
X0344100Y0084100D01*
X0349100Y0079100D01*
X0319600Y0072600D02*
X0317600Y0072600D01*
X0314100Y0114100D02*
X0324100Y0114100D01*
X0334100Y0114100D02*
X0334100Y0139100D01*
X0326600Y0146600D01*
X0329100Y0166600D02*
X0339100Y0166600D01*
X0354100Y0166600D01*
X0339100Y0176600D02*
X0381600Y0176600D01*
X0372600Y0196600D02*
X0336600Y0196600D01*
X0229100Y0196600D01*
X0224100Y0201600D01*
X0224100Y0221600D01*
X0221600Y0224100D01*
X0216600Y0224100D01*
X0234100Y0171600D02*
X0186600Y0171600D01*
X0234100Y0171600D02*
X0259100Y0146600D01*
X0269100Y0146600D02*
X0289100Y0146600D01*
X0299100Y0146600D01*
X0329100Y0166600D02*
X0319100Y0176600D01*
X0309100Y0176600D01*
X0319100Y0186600D02*
X0339100Y0186600D01*
X0339100Y0206600D02*
X0331600Y0214100D01*
X0311600Y0214100D01*
X0311600Y0224100D02*
X0324100Y0224100D01*
X0334100Y0234100D01*
X0346600Y0234100D01*
X0336600Y0246600D02*
X0324100Y0234100D01*
X0311600Y0234100D01*
X0311600Y0244100D02*
X0321600Y0244100D01*
X0331600Y0254100D01*
X0336600Y0256600D02*
X0336600Y0246600D01*
X0336600Y0256600D02*
X0344100Y0264100D01*
X0346600Y0264100D01*
X0301600Y0301600D02*
X0189400Y0301600D01*
X0189400Y0311400D01*
X0189600Y0311600D01*
X0177800Y0311600D01*
X0168900Y0302700D01*
X0143300Y0302700D01*
X0126600Y0291600D02*
X0119100Y0291600D01*
X0091600Y0319100D01*
X0056600Y0319100D01*
X0056600Y0309100D02*
X0091600Y0309100D01*
X0119100Y0281600D01*
X0126600Y0281600D01*
X0126600Y0271600D02*
X0119100Y0271600D01*
X0091600Y0299100D01*
X0056600Y0299100D01*
X0056600Y0289100D02*
X0091600Y0289100D01*
X0119100Y0261600D01*
X0126600Y0261600D01*
X0126600Y0251600D02*
X0116600Y0251600D01*
X0089100Y0279100D01*
X0056600Y0279100D01*
X0056600Y0269100D02*
X0086600Y0269100D01*
X0114100Y0241600D01*
X0126600Y0241600D01*
X0126600Y0231600D02*
X0114100Y0231600D01*
X0086600Y0259100D01*
X0056600Y0259100D01*
X0056600Y0249100D02*
X0084100Y0249100D01*
X0111600Y0221600D01*
X0126600Y0221600D01*
X0126600Y0211600D02*
X0074100Y0211600D01*
X0056600Y0211600D02*
X0034100Y0211600D01*
X0044100Y0231600D02*
X0034100Y0241600D01*
X0044100Y0231600D02*
X0056600Y0231600D01*
X0064100Y0231600D01*
X0074100Y0241600D01*
X0056600Y0201600D02*
X0126600Y0201600D01*
X0126600Y0191600D02*
X0056600Y0191600D01*
X0056600Y0181600D02*
X0126600Y0181600D01*
X0126600Y0161600D02*
X0079100Y0161600D01*
X0066600Y0149100D01*
X0066600Y0134100D01*
X0064100Y0131600D01*
X0056600Y0131600D01*
X0056600Y0121600D02*
X0066600Y0121600D01*
X0074100Y0129100D01*
X0074100Y0141600D01*
X0084100Y0151600D01*
X0126600Y0151600D01*
X0126600Y0141600D02*
X0086600Y0141600D01*
X0081600Y0136600D01*
X0081600Y0124100D01*
X0069100Y0111600D01*
X0056600Y0111600D01*
X0056600Y0101600D02*
X0069100Y0101600D01*
X0089100Y0121600D01*
X0089100Y0129100D01*
X0091600Y0131600D01*
X0126600Y0131600D01*
X0126600Y0121600D02*
X0106100Y0121600D01*
X0101600Y0126100D01*
X0106100Y0111600D02*
X0101600Y0107100D01*
X0106100Y0111600D02*
X0126600Y0111600D01*
X0144100Y0094100D02*
X0144000Y0094000D01*
X0144000Y0021600D01*
X0163700Y0021600D02*
X0163700Y0014500D01*
X0169100Y0009100D01*
X0236600Y0009100D01*
X0183400Y0021600D02*
X0183400Y0023400D01*
X0156600Y0094100D02*
X0144100Y0094100D01*
X0066600Y0094100D01*
X0064100Y0091600D01*
X0056600Y0091600D01*
X0281600Y0264100D02*
X0289100Y0264100D01*
X0201600Y0311600D02*
X0189600Y0311600D01*
X0188500Y0320500D02*
X0189600Y0321600D01*
X0188500Y0320500D02*
X0168900Y0320500D01*
X0143300Y0320500D01*
X0186600Y0298800D02*
X0186600Y0291600D01*
X0186600Y0298800D02*
X0189400Y0301600D01*
D18*
X0259100Y0221600D03*
X0296600Y0204100D03*
X0319100Y0186600D03*
X0329100Y0204100D03*
X0336600Y0196600D03*
X0301600Y0249100D03*
X0296600Y0254100D03*
X0289100Y0264100D03*
X0331600Y0254100D03*
X0336600Y0299100D03*
X0364100Y0299100D03*
X0301600Y0301600D03*
X0316600Y0139100D03*
X0286600Y0121600D03*
X0304100Y0106600D03*
X0281600Y0139100D03*
X0371600Y0099100D03*
X0371600Y0074100D03*
M02*
